#!OML:ASF E:\emotionWalksFemale\Project 1\Capture day 1\Session 1\Female1.ASF
:FULLY-SPECIFIED
:DEGREES
350
root 8.2788 15.3326 35.4774 175.034 -18.1971 181.92
lowerback -1.72958 3.51083 -5.53086
upperback -5.3507 4.01029 -4.34434
thorax -4.67152 1.92799 -1.50631
lowerneck 3.3913 -7.26344 -14.8515
upperneck 21.9955 -16.0555 17.2301
head 8.80451 -8.78478 7.04544
rclavicle -2.06736e-014 2.06736e-014
rhumerus -50.8038 18.0628 -103.914
rradius 32.8488
rwrist 16.3721
rhand 2.77853 -47.9701
rfingers 7.12502
rthumb 28.2489 -75.8606
lclavicle -2.06736e-014 2.06736e-014
lhumerus -55.1672 7.47757 64.505
lradius 37.0013
lwrist -11.7137
lhand -2.94989 -31.3805
lfingers 7.12502
lthumb 22.7621 -2.70331
rfemur -7.63079 12.1605 29.5747
rtibia 20.8098
rfoot -18.0603 -34.8725
rtoes 27.683
lfemur 12.9334 -10.7257 -21.288
ltibia 35.9258
lfoot 9.57018 -4.1416
ltoes -4.05973
351
root 8.30414 15.3211 35.362 174.797 -18.2873 182.159
lowerback -1.66643 3.50907 -5.41548
upperback -5.19753 4.02839 -4.36011
thorax -4.53486 1.93522 -1.58275
lowerneck 3.95846 -7.19243 -15.1078
upperneck 21.0945 -15.937 17.8578
head 8.44141 -8.73384 7.3516
rclavicle -5.60573e-014 2.22639e-014
rhumerus -50.5087 17.9877 -103.626
rradius 32.9127
rwrist 16.1461
rhand 2.6863 -47.8005
rfingers 7.12502
rthumb 28.1608 -75.7055
lclavicle -5.60573e-014 2.22639e-014
lhumerus -55.0372 7.85673 63.8241
lradius 36.9777
lwrist -11.5861
lhand -4.37877 -30.9412
lfingers 7.12502
lthumb 21.3902 -2.10188
rfemur -6.83821 11.6591 30.1784
rtibia 20.2693
rfoot -17.0394 -34.5362
rtoes 28.6887
lfemur 12.1247 -10.0821 -20.3179
ltibia 37.8575
lfoot 11.1163 -4.87922
ltoes -3.3841
352
root 8.33209 15.3053 35.2514 174.524 -18.2589 182.739
lowerback -1.57233 3.57126 -4.97524
upperback -5.12719 4.14031 -4.27956
thorax -4.484 1.98433 -1.74659
lowerneck 4.11445 -7.26871 -15.3517
upperneck 20.5984 -16.026 18.2853
head 8.3191 -8.77014 7.53932
rclavicle -6.32135e-014 1.27222e-013
rhumerus -50.1816 17.643 -103.107
rradius 32.9685
rwrist 16.1196
rhand 2.38119 -47.5895
rfingers 7.12502
rthumb 27.8691 -75.5421
lclavicle -6.32135e-014 1.27222e-013
lhumerus -54.8714 8.28615 63.1756
lradius 37.2062
lwrist -11.213
lhand -4.54487 -29.7575
lfingers 7.12502
lthumb 21.2306 -0.900209
rfemur -6.1234 11.2402 31.1367
rtibia 19.6969
rfoot -15.7481 -34.2099
rtoes 29.8438
lfemur 11.122 -9.40853 -18.9485
ltibia 39.9696
lfoot 12.4491 -5.60084
ltoes -3.17844
353
root 8.36465 15.286 35.1441 174.217 -18.2764 183.295
lowerback -1.23086 3.63191 -4.57663
upperback -5.11291 4.22332 -4.22893
thorax -4.63319 2.02022 -1.93802
lowerneck 4.57624 -7.26349 -15.4373
upperneck 19.8784 -15.981 18.6909
head 8.02464 -8.75253 7.72195
rclavicle 1.43125e-014 8.42847e-014
rhumerus -49.8767 17.3582 -102.674
rradius 33.0766
rwrist 16.0385
rhand 1.9813 -47.5442
rfingers 7.12502
rthumb 27.4867 -75.5582
lclavicle 1.43125e-014 8.42847e-014
lhumerus -54.779 8.71351 62.4253
lradius 37.5533
lwrist -11.1442
lhand -4.15101 -29.207
lfingers 7.12502
lthumb 21.6089 -0.392679
rfemur -5.29014 11.0123 32.0989
rtibia 19.0436
rfoot -15.1522 -34.0226
rtoes 30.8298
lfemur 10.0026 -8.76421 -17.6158
ltibia 42.2387
lfoot 13.5706 -6.36668
ltoes -6.01274
354
root 8.39698 15.2699 35.0319 173.846 -18.3867 183.706
lowerback -0.801757 3.64128 -4.37594
upperback -5.06352 4.2328 -4.16827
thorax -4.81218 2.02695 -2.01315
lowerneck 4.03671 -7.4535 -15.3565
upperneck 20.2653 -16.1685 18.3734
head 8.25941 -8.80785 7.54404
rclavicle -1.19271e-015 3.18055e-014
rhumerus -49.5415 17.4097 -102.402
rradius 33.0546
rwrist 15.6697
rhand 2.30251 -47.6432
rfingers 7.12502
rthumb 27.7939 -75.608
lclavicle -1.19271e-015 3.18055e-014
lhumerus -54.7178 9.05556 61.7862
lradius 37.8714
lwrist -10.8236
lhand -3.79352 -29.6091
lfingers 7.12502
lthumb 21.9522 -0.834713
rfemur -4.27121 10.7031 32.9487
rtibia 18.3541
rfoot -15.169 -33.8503
rtoes 30.6197
lfemur 8.92474 -8.34411 -16.5257
ltibia 44.6174
lfoot 15.1468 -6.8436
ltoes -6.36733
355
root 8.42475 15.2538 34.9136 173.427 -18.4657 184.075
lowerback -0.525348 3.66278 -4.21081
upperback -4.94976 4.27703 -4.08815
thorax -4.84104 2.05263 -2.03625
lowerneck 3.86137 -7.55167 -15.5108
upperneck 20.2996 -16.3038 18.4734
head 8.35319 -8.8629 7.58031
rclavicle -1.19271e-015 4.77083e-015
rhumerus -49.1826 17.2769 -101.923
rradius 33.032
rwrist 15.538
rhand 3.3673 -47.8455
rfingers 7.12502
rthumb 28.8115 -75.6416
lclavicle -1.19271e-015 4.77083e-015
lhumerus -54.6264 9.07541 61.647
lradius 38.3053
lwrist -9.41065
lhand -3.75442 -29.9094
lfingers 7.12502
lthumb 21.9898 -1.13939
rfemur -3.16011 10.2899 33.7569
rtibia 17.623
rfoot -14.972 -33.7317
rtoes 30.4692
lfemur 7.9127 -8.0157 -15.553
ltibia 47.0828
lfoot 16.6087 -7.19342
ltoes -5.48184
